<svg width="100" height="100" viewBox="0 0 100 100" fill="none" xmlns="http://www.w3.org/2000/svg">
<path d="M53.3334 43.3335C56.8696 43.3335 60.261 41.9287 62.7614 39.4282C65.2619 36.9277 66.6667 33.5364 66.6667 30.0001C66.6667 26.4639 65.2619 23.0725 62.7614 20.5721C60.261 18.0716 56.8696 16.6668 53.3334 16.6668C49.7971 16.6668 46.4057 18.0716 43.9053 20.5721C41.4048 23.0725 40 26.4639 40 30.0001C40 33.5364 41.4048 36.9277 43.9053 39.4282C46.4057 41.9287 49.7971 43.3335 53.3334 43.3335Z" fill="white"/>
<path d="M20 26.6668V24.1668C20 21.8668 21.8667 20.0002 24.1667 20.0002C26.4667 20.0002 28.3 21.8668 28.6 24.1668C30.4 38.8335 41.5334 50.0002 53.3334 50.0002H56.6667C63.7391 50.0002 70.5219 52.8097 75.5229 57.8107C80.5238 62.8116 83.3334 69.5944 83.3334 76.6668C83.3334 78.435 82.631 80.1306 81.3807 81.3809C80.1305 82.6311 78.4348 83.3335 76.6667 83.3335C76.5167 83.3326 76.3709 83.2836 76.2508 83.1935C76.1308 83.1035 76.0429 82.9773 76 82.8335C74.9909 80.0413 73.5018 77.4468 71.6 75.1668C71.1 74.5002 70.2 74.9668 70.3 75.7335L71.1334 82.4002C71.2 82.9002 70.8 83.3335 70.3 83.3335H40C38.2319 83.3335 36.5362 82.6311 35.286 81.3809C34.0357 80.1306 33.3334 78.435 33.3334 76.6668V69.2669C33.3334 64.0335 31.1 59.1002 28.2334 54.7002C22.9083 46.3155 20.0547 36.5995 20 26.6668Z" fill="white"/>
</svg>
