<svg width="80" height="80" viewBox="0 0 80 80" fill="none" xmlns="http://www.w3.org/2000/svg">
<path d="M3.86652 16.7333C3.53318 17.6667 3.99985 18.6667 4.83318 19.2L39.0665 42.0333C39.3421 42.2196 39.6672 42.3192 39.9998 42.3192C40.3325 42.3192 40.6576 42.2196 40.9332 42.0333L75.1665 19.2C75.9998 18.6667 76.4332 17.6667 76.1332 16.7333C75.4529 14.765 74.175 13.0581 72.4779 11.851C70.7808 10.644 68.7491 9.99683 66.6665 10H13.3332C11.2506 9.99683 9.21894 10.644 7.52183 11.851C5.82472 13.0581 4.54683 14.765 3.86652 16.7333Z" fill="white"/>
<path d="M76.6666 29.3333C76.664 29.032 76.5798 28.7369 76.4229 28.4796C76.266 28.2223 76.0422 28.0124 75.7754 27.8722C75.5087 27.7319 75.2089 27.6667 74.908 27.6833C74.607 27.7 74.3163 27.7979 74.0666 27.9667L42.2999 49.1333C40.8999 50.0667 39.0999 50.0667 37.6999 49.1333L5.93325 27.9667C5.68357 27.7979 5.3928 27.7 5.09188 27.6833C4.79096 27.6667 4.49116 27.7319 4.22439 27.8722C3.95763 28.0124 3.73387 28.2223 3.57695 28.4796C3.42002 28.7369 3.3358 29.032 3.33325 29.3333V60C3.33325 62.6522 4.38682 65.1957 6.26218 67.0711C8.13755 68.9464 10.6811 70 13.3333 70H66.6666C69.3188 70 71.8623 68.9464 73.7377 67.0711C75.613 65.1957 76.6666 62.6522 76.6666 60V29.3333Z" fill="white"/>
</svg>
