<svg width="80" height="80" viewBox="0 0 80 80" fill="none" xmlns="http://www.w3.org/2000/svg">
<path d="M8.76674 13.9668C9.35749 11.86 10.6229 10.0052 12.369 8.68659C14.1151 7.36801 16.2454 6.65849 18.4334 6.66681H23.3334C24.2175 6.66681 25.0653 7.018 25.6904 7.64312C26.3156 8.26824 26.6667 9.11609 26.6667 10.0001V23.2668C26.68 24.8233 26.338 26.3624 25.6667 27.7668C24.8421 29.4615 23.5508 30.8855 21.9447 31.8716C20.3386 32.8577 18.4845 33.3648 16.6001 33.3335C9.93341 33.3335 5.13341 27.0001 6.93341 20.5668L8.76674 13.9668ZM33.3334 6.66681C32.4494 6.66681 31.6015 7.018 30.9764 7.64312C30.3513 8.26824 30.0001 9.11609 30.0001 10.0001V23.3335C30.0001 25.9856 31.0536 28.5292 32.929 30.4045C34.8044 32.2799 37.3479 33.3335 40.0001 33.3335C42.635 33.3336 45.1635 32.2938 47.036 30.44C48.9085 28.5862 49.9737 26.0683 50.0001 23.4335V10.0001C50.0001 9.11609 49.6489 8.26824 49.0238 7.64312C48.3986 7.018 47.5508 6.66681 46.6667 6.66681H33.3334ZM56.6667 6.66681C55.7827 6.66681 54.9348 7.018 54.3097 7.64312C53.6846 8.26824 53.3334 9.11609 53.3334 10.0001V23.2668C53.333 23.3224 53.333 23.3779 53.3334 23.4335C53.3241 24.7503 53.5794 26.0555 54.0841 27.2718C54.5888 28.4881 55.3327 29.5906 56.2716 30.5139C57.2104 31.4373 58.3252 32.1626 59.5497 32.647C60.7743 33.1313 62.0836 33.3648 63.4001 33.3335C70.0667 33.3335 74.8667 27.0001 73.0667 20.5668L71.2334 13.9668C70.6427 11.86 69.3772 10.0052 67.6312 8.68659C65.8851 7.36801 63.7547 6.65849 61.5667 6.66681H56.6667Z" fill="white"/>
<path d="M69.9998 38.0664V63.3331C69.9998 65.9852 68.9462 68.5288 67.0708 70.4041C65.1955 72.2795 62.6519 73.3331 59.9998 73.3331H50.8331C50.6121 73.3331 50.4001 73.2453 50.2438 73.089C50.0876 72.9327 49.9998 72.7207 49.9998 72.4997V53.3331C49.9998 51.5649 49.2974 49.8693 48.0471 48.619C46.7969 47.3688 45.1012 46.6664 43.3331 46.6664H36.6664C34.8983 46.6664 33.2026 47.3688 31.9524 48.619C30.7021 49.8693 29.9998 51.5649 29.9998 53.3331V72.4997C29.9998 72.9664 29.6331 73.3331 29.1664 73.3331H19.9998C17.3476 73.3331 14.8041 72.2795 12.9287 70.4041C11.0533 68.5288 9.99976 65.9852 9.99976 63.3331V38.0664C9.99976 37.4664 10.6664 37.0664 11.2331 37.2664C14.0261 38.3956 17.0962 38.6497 20.0369 37.9949C22.9775 37.3401 25.6498 35.8074 27.6998 33.5997C28.0331 33.1997 28.6998 33.1997 29.0331 33.5997C30.4339 35.1081 32.1309 36.3113 34.0179 37.134C35.9048 37.9568 37.9412 38.3814 39.9998 38.3814C42.0583 38.3814 44.0947 37.9568 45.9817 37.134C47.8686 36.3113 49.5656 35.1081 50.9664 33.5997C51.2998 33.1997 51.9664 33.1997 52.2998 33.5997C54.347 35.8113 57.0194 37.3468 59.9611 38.0019C62.9028 38.6569 65.9742 38.4004 68.7664 37.2664C69.3331 37.0331 69.9998 37.4664 69.9998 38.0664Z" fill="white"/>
</svg>
